/* XPM */
static char *result[] = {
/* columns rows colors chars-per-pixel */
"32 32 9 1 ",
"  c #3C1E2B",
". c #6E1516",
"X c #79390A",
"o c #961F16",
"O c #A34E24",
"+ c #B86828",
"@ c #FFA939",
"# c #FFD4A8",
"$ c None",
/* pixels */
"$$$$$$$$$$$$$$$$$$$$$$$$$$$$$$$$",
"$$$$$$$$$$$$$$$$$$$$$$$$$$$$$$$$",
"$$$$$$$$$$$$$$$$$$$$$$$$$$$$$$$$",
"$$$$$$$$$$$$$$$$$$$$$$$$$$$$$$$$",
"$$$$$$$$$$$$$$$$$$$$$$$$$$$$$$$$",
"$$$$$$$$$$$$$$$$$$$$$$$$$$$$$$$$",
"$$$$$$$$$$$$$$$$$$$$$$$$$$$$$$$$",
"$$$$$$$$$$$$$  $$  $$$$$$$$$$$$$",
"$$$$$$$$$$$$   $$   $$$$$$$$$$$$",
"$$$$$$$$$$$$ XXXXXX $$$$$$$$$$$$",
"$$$$$$$$$$$$X++++++X$$$$$$$$$$$$",
"$$$$$$$$$$$$X@++++@X$$$$$$$$$$$$",
"$$$$$$$$$$$ + @@@@ X$$$$$$$$$$$$",
"$$$$$$$$$$$ ++ ++ ++ $$$$$$$$$$$",
"$$$$$$$$$$$ ++ OO ++ $$$$$$$$$$$",
"$$$$$$$$$$ +@#+  +#@+ $$$$$$$$$$",
"$$$$$$$$$$ +@@+  +@@+ $$$$$$$$$$",
"$$$$$$$$#++  XXOOXX  $$$$$$$$$$$",
"$$$$$$$$$X++X  XX  @@$$$$$$$$$$$",
"$$$$$$$$$#OX  XOOX@+@@$$$$$$$$$$",
"$$$$$$$$$$Xoo XOOX#X#+$$$$$$$$$$",
"$$$$$$$$$$oooo XX  XX $$$$$$$$$$",
"$$$$$$$$$$o...    .. $$$$$$$$$$$",
"$$$$$$$$$$ ....     $$$$$$$$$$$$",
"$$$$$$$$$$ ... $$$$$$$$$$$$$$$$$",
"$$$$$$$$$$$   $$$$$$$$$$$$$$$$$$",
"$$$$$$$$$$$$$$$$$$$$$$$$$$$$$$$$",
"$$$$$$$$$$$$$$$$$$$$$$$$$$$$$$$$",
"$$$$$$$$$$$$$$$$$$$$$$$$$$$$$$$$",
"$$$$$$$$$$$$$$$$$$$$$$$$$$$$$$$$",
"$$$$$$$$$$$$$$$$$$$$$$$$$$$$$$$$",
"$$$$$$$$$$$$$$$$$$$$$$$$$$$$$$$$"
};
