/* XPM */
static char *result[] = {
/* columns rows colors chars-per-pixel */
"32 35 11 1 ",
"  c #3C1E2B",
". c #79390A",
"X c #451234",
"o c #522D4B",
"O c #622547",
"+ c #915816",
"@ c #873251",
"# c #B15C51",
"$ c #BE8420",
"% c #FFA939",
"& c None",
/* pixels */
"&&&&&&&&&&&&&&&&&&&&&&&&&&&&&&&&",
"&&&&&&&&&&&&&&&&&&&&&&&&&&&&&&&&",
"&&&&&&&&&&&&&&&&&&&&&&&&&&&&&&&&",
"&&&&&&&&&&&&&&&&&&&&&&&&&&&&&&&&",
"&&&&&&&&&&&&&&&&&&&&&&&OOO#&&&&&",
"&&&&&@@&&&&##&&&&&&&&&OOO@&&&&&&",
"&&&&&&@@&@##&&&&&&&&&&@@@&&&&&&&",
"&&&&&&OX @@@XX&&&&&&&XXX&&&&&&&&",
"&&&&XXX.. @XX&&&&&&..XXO&&&&&&&&",
"&&&&OOOXX. $$$$$$....XOOO&&&&&&&",
"&&&&@@&&&.$.o..oo$.  &OO@&&&&&&&",
"&&&&@&&& $.oo.o  $. &&&@#&&&&&&&",
"&&&&&&&& $oooo   %. &&&&#&&&&&&&",
"&&&&OO&& $$o    %%. &&&&&&&&&&&&",
"&&&&OOO& ++$$$$$++. &&&&&&&&&&&&",
"&&&&&O .+ ++++++++. &&&&&&&&&&&&",
"&&&@@@O . ++++++++. &&&&&&&&&&&&",
"&&&&@@O&  +++++...o &&&&&&&&&&&&",
"&&&&OO&&& +++++.++.o &&&&&&&&&&&",
"&&&&&+++& .+++.+.+.+ &&&&&&&&&&&",
"&&&&&.+.. .+++.+.... &&&&&&&&&&&",
"&&&&&  .o o.++.+++.o &&&&&&&&&&&",
"&&&&&&.   o.+++..+o &&&&&&&&&&&&",
"&&&&&&&&  o.+++++.o &&&&&&&&&&&&",
"&&&&&&&&& o..++++.o   &&&&&&&&&&",
"&&&&&&&&& oo.+++..o o. &&&&&&&&&",
"&&&&&&&&&  o..+..o  .. &&&&&&&&&",
"&&&&&&&&   oo....o ..o &&&&&&&&&",
"&&&&&&&& .. ooooo  oo  &&&&&&&&&",
"&&&&&&&& o.           &&&&&&&&&&",
"&&&&&&&& oo  &&&&&&&&&&&&&&&&&&&",
"&&&&&&&&&   &&&&&&&&&&&&&&&&&&&&",
"&&&&&&&&&&&&&&&&&&&&&&&&&&&&&&&&",
"&&&&&&&&&&&&&&&&&&&&&&&&&&&&&&&&",
"&&&&&&&&&&&&&&&&&&&&&&&&&&&&&&&&"
};
