/* XPM */
static char *result[] = {
/* columns rows colors chars-per-pixel */
"32 35 11 1 ",
"  c #3C1E2B",
". c #79390A",
"X c #451234",
"o c #522D4B",
"O c #622547",
"+ c #915816",
"@ c #873251",
"# c #B15C51",
"$ c #BE8420",
"% c #FFA939",
"& c None",
/* pixels */
"&&&&&&&&&&&&&&&&&&&&&&&&&&&&&&&&",
"&&&&&&&&&&&&&&&&&&&&&&&&&&&&&&&&",
"&&&&&&&&&&&&&&&&&&&&&&&&&&&&&&&&",
"&&&&&&&&&&&&&&&&&&&&&&&&&&&&&&&&",
"&&&&&&&&&&&&&&&&&&&&&&&&&&&&&&&&",
"&&&&&&&&&&&&&&&&&&&&&&&&&&&&&&&&",
"&&&&&&&&@@&&&&##&&&&&&&&&&OOO#&&",
"&&&&&&&&&@@&@##&&&&&&&&&&OOO@&&&",
"&&&&&&&&&OX @@@XX&&&&&&&&@@@&&&&",
"&&&&&&&XXX.. @XX&&&&&&&&XXX&&&&&",
"&&&&&&&OOOX.  $$$$$$&&..XXO&&&&&",
"&&&&&&&@@&& .$.o..oo$...XOOO&&&&",
"&&&&&&&@&&& .$oo.oo o$  &OO@&&&&",
"&&&&&&&&&&& .$ooo    % &&&@#&&&&",
"&&&&&&&OO&& .$$o    %% &&&&#&&&&",
"&&&&&&&OOO& .++$$$$$++ &&&&&&&&&",
"&&&&&&&&O .+ +++++++++ &&&&&&&&&",
"&&&&&&@@@O . ++++++++. &&&&&&&&&",
"&&&&&&&@@O&o.+++++...o &&&&&&&&&",
"&&&&&&&OO&&o.++++.++. &&&&&&&&&&",
"&&&&&&&&&&.o.+++.++.o &&&&&&&&&&",
"&&&&&&&&&+.o.+++.+.+o&&&&&&&&&&&",
"&&&&&&&&++.o.+++.+.+ .&&&&&&&&&&",
"&&&&&&&&.. o.+++.+.o .+&&&&&&&&&",
"&&&&&&&&.o o.++++.+o ..&&&&&&&&&",
"&&&&&&&&&  o.++++..o  &&&&&&&&&&",
"&&&&&&&&&  o..+++..o &&&&&&&&&&&",
"&&&&&&&&&  oo......o&&&&&&&&&&&&",
"&&&&&&&&&   oo.....o&&&&&&&&&&&&",
"&&&&&&&& o.o  oo..oo &&&&&&&&&&&",
"&&&&&&&& ...    ooo  &&&&&&&&&&&",
"&&&&&&&&&    &&&&   &&&&&&&&&&&&",
"&&&&&&&&&&&&&&&&&&&&&&&&&&&&&&&&",
"&&&&&&&&&&&&&&&&&&&&&&&&&&&&&&&&",
"&&&&&&&&&&&&&&&&&&&&&&&&&&&&&&&&"
};
