/* XPM */
static char *result[] = {
/* columns rows colors chars-per-pixel */
"32 35 11 1 ",
"  c #3C1E2B",
". c #79390A",
"X c #451234",
"o c #522D4B",
"O c #622547",
"+ c #915816",
"@ c #873251",
"# c #B15C51",
"$ c #BE8420",
"% c #FFA939",
"& c None",
/* pixels */
"&&&&&&&&&&&&&&&&&&&&&&&&&&&&&&&&",
"&&&&&&&&&&&&&&&&&&&&&&&&&&&&&&&&",
"&&&&&&&&&&&&&&&&&&&&&&&&&&&&&&&&",
"&&&&&&&&&&&&&&&&&&&&&&&&&&&&&&&&",
"&&&&&&&&&&&&&&&&&&&&&&&&&&&&&&&&",
"&&&&&&&&&&&&&&&&&&&&&&&&&&&&&&&&",
"&&&&&&&@@&&&&##&&&&&&&&&&&&&&&&&",
"&&&&&&&&@@&@##&&&&&&&&&&&OOO#&&&",
"&&&&&&&&OX @@@XX&&&&&&&&OOO@&&&&",
"&&&&&&XXX.. $$$$$$&&&&&&@@@&&&&&",
"&&&&&&OOOX.$oo..oo$.&&&XXX&&&&&&",
"&&&&&&@@& .$oo.oo  $ ..XXO&&&&&&",
"&&&&&&@&& .$ooo    %...XOOO&&&&&",
"&&&&&OO&& .$$     %%.  &OO@&&&&&",
"&&&&&OOO&  ++$$$$$++ &&&&@#&&&&&",
"&&&&&&O .+ +++++++++ &&&&&#&&&&&",
"&&&&@@@O . ++++++++. &&&&&&&&&&&",
"&&&&&@@O&  ++++++++  &&&&&&&&&&&",
"&&&&&OO& o.++++++.. &&&&&&&&&&&&",
"&&&&&&&& +.+++++..+ &+++&&&&&&&&",
"&&&&&&&& ..+++++.+. ..+.&&&&&&&&",
"&&&&&&&& o.+++++.+. o.  &&&&&&&&",
"&&&&&&&&& o+++++.+o   .&&&&&&&&&",
"&&&&&&&&& o.+++++.o  &&&&&&&&&&&",
"&&&&&&&   o.++++..o &&&&&&&&&&&&",
"&&&&&& .o o..+++.oo &&&&&&&&&&&&",
"&&&&&& ..  o..+..o  &&&&&&&&&&&&",
"&&&&&& o.. o....oo   &&&&&&&&&&&",
"&&&&&&  oo  ooooo .. &&&&&&&&&&&",
"&&&&&&&           .o &&&&&&&&&&&",
"&&&&&&&&&&&&&&&&  oo &&&&&&&&&&&",
"&&&&&&&&&&&&&&&&&   &&&&&&&&&&&&",
"&&&&&&&&&&&&&&&&&&&&&&&&&&&&&&&&",
"&&&&&&&&&&&&&&&&&&&&&&&&&&&&&&&&",
"&&&&&&&&&&&&&&&&&&&&&&&&&&&&&&&&"
};
