/* XPM */
static char *result[] = {
/* columns rows colors chars-per-pixel */
"32 32 14 1 ",
"  c #361313",
". c #6E1516",
"X c #5D2F1C",
"o c #256912",
"O c #961F16",
"+ c #945826",
"@ c #995C2E",
"# c #5B8A19",
"$ c #8DB024",
"% c #B8815B",
"& c #F7B155",
"* c #FFC69E",
"= c #F7EFEB",
"- c None",
/* pixels */
"--------------------------------",
"--------------------------------",
"--------------------------------",
"--------------------------------",
"--------------------------------",
"--------------------------------",
"--------------------------------",
"--------------------------------",
"-----------------------O--------",
"----------------$$$$$-OOO-------",
"---------------$$$$$$OO.--------",
"--------------$$$$$$...---------",
"-----------$$X$####..$$---------",
"-----------#@X###$$$#$$$--------",
"------------@XXXX#$$$###--------",
"-----------@XX+++X#$$###--------",
"-----------@X+%  +X*oooX--------",
"----------@@X**X=%+*oXX --------",
"---------X@XX%***%%%XXX --------",
"---------X&X--****%XXX ---------",
"---------X&X---%%%%X  ----------",
"---------X&X+++o#++o------------",
"---------X&**+o##++#o-----------",
"---------X&**-**+++X -----------",
"--------- @X-o**++X##o----------",
"--------- @X-oXXXXXoo-----------",
"---------- XX.XX ++X -----------",
"----------- X... OOO. ----------",
"------------ X   OO.. ----------",
"------------- X--    -----------",
"-------------- -----------------",
"--------------------------------"
};
