/* XPM */
static char *result[] = {
/* columns rows colors chars-per-pixel */
"32 32 8 1 ",
"  c #3C1E2B",
". c #6E1516",
"X c #79390A",
"o c #961F16",
"O c #A34E24",
"+ c #B86828",
"@ c #FFA939",
"# c None",
/* pixels */
"################################",
"################################",
"################################",
"################################",
"################################",
"################################",
"################################",
"#############  ##  #############",
"############   ##   ############",
"############   XX   ############",
"############   OO  X############",
"############X +++ +O############",
"########### O++++++O ###########",
"########### O+++++++ ###########",
"########### ++++++++ ###########",
"########## O++++++++O ##########",
"########## XOOOOOOOOX ##########",
"###########  XXXXXX  ###########",
"###########+O      O+###########",
"##########@+ XX++XX +@##########",
"##########OO X OO X OO##########",
"###########O X XX X O###########",
"############         ###########",
"########### ..     .. ##########",
"########### oo. # ooo ##########",
"############   ###   ###########",
"################################",
"################################",
"################################",
"################################",
"################################",
"################################"
};
