/* XPM */
static char *result[] = {
/* columns rows colors chars-per-pixel */
"32 35 13 1 ",
"  c #3C1E2B",
". c #79390A",
"X c #451234",
"o c #522D4B",
"O c #622547",
"+ c #BF0000",
"@ c #E93100",
"# c #915816",
"$ c #873251",
"% c #B15C51",
"& c #BE8420",
"* c #FFA939",
"= c None",
/* pixels */
"================================",
"================================",
"================================",
"================================",
"================================",
"===%OOO=========================",
"====$OOO=========$$====$$=======",
"=====$$$==========$$$=$$========",
"======XXX=======XX$$$ XO========",
"======OXX..======XX$ ..XXX======",
"=====OOOX....&&&&&.  .XOOO======",
"=====$OO=  .&#o##o&.  ==$$======",
"=====$$=== &#oo#ooo&# ===$======",
"=====$==== &oooo o &# ==========",
"========== &oo o   *  ==OO======",
"========== #&     *#  =OOO======",
"========== ##&&&**#. #. O=======",
"========== ########. . O$$$=====",
"========== #+@ # @+.  =O$$======",
"=======o.. # +@ @+ . oo=OO======",
"======o#oo .       . ##o========",
"======o#.o .  OOO  . ...o=======",
"===== ..    O%$O$%O    .. ======",
"=====    =  $$O O$$. =    ======",
"======  == O$O o O$O ===========",
"==========  O ...  O ===========",
"========== o .#.#.o  ===========",
"========== .######.. ===========",
"========== oo.#...oo ===========",
"=========   oo.o.o   ===========",
"======== ooo      ooo ==========",
"======== .#. ==== .#. ==========",
"=========   ======   ===========",
"================================",
"================================"
};
