/* XPM */
static char *result[] = {
/* columns rows colors chars-per-pixel */
"32 35 12 1 ",
"  c #3C1E2B",
". c #79390A",
"X c #451234",
"o c #522D4B",
"O c #622547",
"+ c #BF0000",
"@ c #E93100",
"# c #915816",
"$ c #873251",
"% c #BE8420",
"& c #FFA939",
"* c None",
/* pixels */
"********************************",
"********************************",
"********************************",
"********************************",
"*********************$$*********",
"**OOO**********$$$$*$$**********",
"*$$OOO**********$$$ XO**********",
"***$$$********XX$$ #.XXX********",
"****XXX********XX  .XOOO********",
"****OXX#*.%%%%%%%  ***$$$*******",
"***OOOX.#.%.o..oo%. ************",
"****$OO. %.oo.oo %. ************",
"****$$** %oooo o &. **OO********",
"****$*** %oo o   &. *OOO********",
"******** #%     &# #. O*$*******",
"******** ##%%%&&#. . O$$********",
"******** .#######.. *O$$O*******",
"********  .+@   ++. oo##********",
"********* . +@ @+ . .#. ********",
"*******%.%        . o.. ********",
"******.%.%.  OOO O   .##********",
"******#ooo# $$O$$$. *   ********",
"******#  #%$$O O$$$ ************",
"*********  $O o O O ************",
"********** O ...# O  ***********",
"********** o .#.#.   ***********",
"********** .#####. ## **********",
"********** oo.#.#.#%%#**********",
"**********  oo.o. .oo.**********",
"***********       oooo**********",
"*****************  oo **********",
"******************   ***********",
"********************************",
"********************************",
"********************************"
};
