/* XPM */
static char *result[] = {
/* columns rows colors chars-per-pixel */
"32 35 12 1 ",
"  c #3C1E2B",
". c #79390A",
"X c #451234",
"o c #522D4B",
"O c #622547",
"+ c #BF0000",
"@ c #E93100",
"# c #915816",
"$ c #873251",
"% c #BE8420",
"& c #FFA939",
"* c None",
/* pixels */
"********************************",
"********************************",
"********************************",
"********************************",
"********************************",
"*****$$O************************",
"******$OO***************$$******",
"*******$$O********$$$$*$$*******",
"*******OXX.********$$$ XO*******",
"*******$OX..*%%%%%%%$ ..XXX*****",
"******$$$O.#%oo..o.%  .XOOO*****",
"******$$** #%oo.ooo.%  **$$$****",
"*******$** .%ooo   o& **********",
"********** .#%o    o& **********",
"********** ..%     &. OO********",
"********** ..#%&&&&#. .OO*******",
"********** ..#######.  $$$******",
"******##oo .++   @+.  *$$*******",
"****** ### . +@ @+   ***********",
"****** ... .        %.%*********",
"******##.   OOOOO  .%.%.********",
"******   * .$$$O$$O#ooo#********",
"********** O$OO O$$%#  #********",
"********** O O o O$   **********",
"********* ... ... O  ***********",
"*********   ##.## o ************",
"******** ##  #.###. ************",
"********#%%. #.#.oo ************",
"********ooo. .o.oo  ************",
"********oooo      **************",
"******** oo  *******************",
"*********   ********************",
"********************************",
"********************************",
"********************************"
};
