/* XPM */
static char *result[] = {
/* columns rows colors chars-per-pixel */
"32 32 13 1 ",
"  c #361313",
". c #6E1516",
"X c #5D2F1C",
"o c #256912",
"O c #961F16",
"+ c #945826",
"@ c #5B8A19",
"# c #8DB024",
"$ c #B8815B",
"% c #DE9945",
"& c #FFC69E",
"* c #F7EFEB",
"= c None",
/* pixels */
"================================",
"================================",
"================================",
"================================",
"================================",
"================================",
"================================",
"================================",
"==========O=====================",
"=========OOO######==============",
"==========.OO######=============",
"===========...######============",
"==========###..@@@@##===========",
"==========###@@###@@@##=========",
"==========@@@@###XXXX@@=========",
"==========@@@@##X+++X===========",
"==========XXoo&X+  $+===========",
"========== XXX&+$*X&&===========",
"========== XXX$$$&&&$===========",
"=========== XXX$&&&&============",
"============  X$$$$=============",
"=============o++@o==============",
"============o@++@@o=============",
"============ X%%XX =============",
"===========oo@&&@@o=============",
"===========ooX&&XXo=============",
"============ XX++X =============",
"============ ..OOO =============",
"============  ..OO =============",
"==============    ==============",
"================================",
"================================"
};
