/* XPM */
static char *result[] = {
/* columns rows colors chars-per-pixel */
"32 35 12 1 ",
"  c #3C1E2B",
". c #79390A",
"X c #451234",
"o c #522D4B",
"O c #622547",
"+ c #BF0000",
"@ c #E93100",
"# c #915816",
"$ c #873251",
"% c #BE8420",
"& c #FFA939",
"* c None",
/* pixels */
"********************************",
"********************************",
"********************************",
"********************************",
"********************************",
"************$$$$*$$$************",
"************X$$$ XXX************",
"***********XXX$ ..XXX***********",
"*************XX . OO************",
"********X**** %%%%% ************",
"******OOOO** %#oooo%  **********",
"******$$OO  %#oooooo%# *********",
"********$$#.%oooo o &# *********",
"********XX ##%     &#  *********",
"*********O .##%%%&&#. **********",
"********OOO.########. **********",
"********$OO #.##.#### **********",
"********$$* #....#+@ .**********",
"********$** #....# +@.**********",
"*********   ..   .   .**********",
"********* o.. #%%% OO **********",
"********* o..  %%%%%%%**********",
"*********  .    #%%%%#**********",
"********** .     ####***********",
"**********   .#        *********",
"**********  .##  .#. . *********",
"*********  ###. ##. .o *********",
"********* %%##      o **********",
"*********.%##.    oo ***********",
"********* ... ****  ************",
"*********  .. ******************",
"**********   *******************",
"********************************",
"********************************",
"********************************"
};
