/* XPM */
static char *result[] = {
/* columns rows colors chars-per-pixel */
"32 32 6 1 ",
"  c #5D2F1C",
". c #B8772B",
"X c #D1A26E",
"o c #FFF2F2",
"O c white",
"+ c None",
/* pixels */
"++++++++++++++++++++++++++++++++",
"++++++++++++++++++++++++++++++++",
"++++++++++++++++++++++++++++++++",
"++++++++++++++++++++++++++++++++",
"++++++++++++++++++++++++++++++++",
"++++++++++++++++++++++++++++++++",
"++++++++++++++X..X++++++++++++++",
"+++++++++++++X....X+++++++++++++",
"++++++++++++++X..X++++++++++++++",
"++++++++++++++X..X++++++++++++++",
"++++++++++++++XXXX++++++++++++++",
"+++++++++++++++XX+++++++++++++++",
"+++++++++++++++  +++++++++++++++",
"+++++++++++++++  +++++++++++++++",
"+++++++++++++++  +++++++++++++++",
"+++++++++++++++  +++++++++++++++",
"+++++++++++++++  +++++++++++++++",
"+++++++++++++++  +++++++++++++++",
"+++++++++++++++  +++++++++++++++",
"+++++++++++++++  +++++++++++++++",
"+++++++++++++++oo+++++++++++++++",
"++++++++++++++XoOX++++++++++++++",
"++++++++++++++XoOX++++++++++++++",
"+++++++++++++++oo+++++++++++++++",
"+++++++++++++++oo+++++++++++++++",
"++++++++++++++++++++++++++++++++",
"++++++++++++++++++++++++++++++++",
"++++++++++++++++++++++++++++++++",
"++++++++++++++++++++++++++++++++",
"++++++++++++++++++++++++++++++++",
"++++++++++++++++++++++++++++++++",
"++++++++++++++++++++++++++++++++"
};
