/* XPM */
static char *result[] = {
/* columns rows colors chars-per-pixel */
"32 32 9 1 ",
"  c #3C1E2B",
". c #6E1516",
"X c #79390A",
"o c #961F16",
"O c #A34E24",
"+ c #B86828",
"@ c #FFA939",
"# c #FFD4A8",
"$ c None",
/* pixels */
"$$$$$$$$$$$$$$$$$$$$$$$$$$$$$$$$",
"$$$$$$$$$$$$$$$$$$$$$$$$$$$$$$$$",
"$$$$$$$$$$$$$$$$$$$$$$$$$$$$$$$$",
"$$$$$$$$$$$$$$$$$$$$$$$$$$$$$$$$",
"$$$$$$$$$$$$$$$$$$$$$$$$$$$$$$$$",
"$$$$$$$$$$$$$$$$$$$$$$$$$$$$$$$$",
"$$$$$$$$$$$$$$$$$$$$$$$$$$$$$$$$",
"$$$$$$$$$$$$$$$   $$$$$$$$$$$$$$",
"$$$$$$$$$$$$$$    $$$$$$$$$$$$$$",
"$$$$$$$$$$$$XX  XXX$$$$$$$$$$$$$",
"$$$$$$$$$$$XOO ++++X$$$$$$$$$$$$",
"$$$$$$$$$$$X++++@@@X$$$$$$$$$$$$",
"$$$$$$$$$$ O+++++ @X$$$$$$$$$$$$",
"$$$$$$$$$$ O++++++ @ $$$$$$$$$$$",
"$$$$$$$$$$ XXO++++ +  $$$$$$$$$$",
"$$$$$$$$$$  XXOO@#OO  $$$$$$$$$$",
"$$$$$$$$$$$  XXO@@+X $$$$$$$$$$$",
"$$$$$$$$$$$$$  XOXX $$$$$$$$$$$$",
"$$$$$$$$$$$$ OO    $$$$$$$$$$$$$",
"$$$$$$$$$$$$O++XXX $$$$$$$$$$$$$",
"$$$$$$$$$$$$O+O# XX $$$$$$$$$$$$",
"$$$$$$$$$$$$ #XXOOXo $$$$$$$$$$$",
"$$$$$$$$$$$$ XX OOoo $$$$$$$$$$$",
"$$$$$$$$$$$$  X ooo $$$$$$$$$$$$",
"$$$$$$$$$$$$  ...o $$$$$$$$$$$$$",
"$$$$$$$$$$$$$     $$$$$$$$$$$$$$",
"$$$$$$$$$$$$$$$$$$$$$$$$$$$$$$$$",
"$$$$$$$$$$$$$$$$$$$$$$$$$$$$$$$$",
"$$$$$$$$$$$$$$$$$$$$$$$$$$$$$$$$",
"$$$$$$$$$$$$$$$$$$$$$$$$$$$$$$$$",
"$$$$$$$$$$$$$$$$$$$$$$$$$$$$$$$$",
"$$$$$$$$$$$$$$$$$$$$$$$$$$$$$$$$"
};
