/* XPM */
static char *result[] = {
/* columns rows colors chars-per-pixel */
"32 32 11 1 ",
"  c #361313",
". c #6E1516",
"X c #5D2F1C",
"o c #256912",
"O c #961F16",
"+ c #945826",
"@ c #5B8A19",
"# c #8DB024",
"$ c #B8815B",
"% c #FFC69E",
"& c None",
/* pixels */
"&&&&&&&&&&&&&&&&&&&&&&&&&&&&&&&&",
"&&&&&&&&&&&&&&&&&&&&&&&&&&&&&&&&",
"&&&&&&&&&&&&&&&&&&&&&&&&&&&&&&&&",
"&&&&&&&&&&&&&&&&&&&&&&&&&&&&&&&&",
"&&&&&&&&&&&&&&&&&&&&&&&&&&&&&&&&",
"&&&&&&&&&&&&&&&&&&&&&&&&&&&&&&&&",
"&&&&&&&&&&&&&&&&&&&&&&&&&&&&&&&&",
"&&&&&&&&&&&&&&&&&&&&&&&&&&&&&&&&",
"&&&&&&&&&&&&O&&&&&&&&&&&&&&&&&&&",
"&&&&&&&&&&&.O@####@&&&&&&&&&&&&&",
"&&&&&&&&&&&.O@#####@&&&&&&&&&&&&",
"&&&&&&&&&&&@.#######@&&&&&&&&&&&",
"&&&&&&&&&&X@########@X&&&&&&&&&&",
"&&&&&&&&&$X@########@X&&&&&&&&&&",
"&&&&&&&&&$X@@######@@X&&&&&&&&&&",
"&&&&&&&&&&XX@@@@@@@@XX&&&&&&&&&&",
"&&&&&&&&&&XXX@@@@@@XX&&&&&&&&&&&",
"&&&&&&&&&&XX+XXXXXX+X&&&&&&&&&&&",
"&&&&&&&&&&&XX++++++X&&&&&&&&&&&&",
"&&&&&&&&&&&&XX++++XX+&&&&&&&&&&&",
"&&&&&&&&&&&& oXXXXo ++&&&&&&&&&&",
"&&&&&&&&&&&& oooooo ++&&&&&&&&&&",
"&&&&&&&&&&&& oo@@oo  %%&&&&&&&&&",
"&&&&&&&&&&&& XXXX    $%&&&&&&&&&",
"&&&&&&&&&&&& o@@@@o  &&&&&&&&&&&",
"&&&&&&&&&&& ooooo   &&&&&&&&&&&&",
"&&&&&&&&&&&      &&&&&&&&&&&&&&&",
"&&&&&&&&&&& ... &&&&&&&&&&&&&&&&",
"&&&&&&&&&&& ... &&&&&&&&&&&&&&&&",
"&&&&&&&&&&&&   &&&&&&&&&&&&&&&&&",
"&&&&&&&&&&&&&&&&&&&&&&&&&&&&&&&&",
"&&&&&&&&&&&&&&&&&&&&&&&&&&&&&&&&"
};
