/* XPM */
static char *result[] = {
/* columns rows colors chars-per-pixel */
"32 32 14 1 ",
"  c #361313",
". c #6E1516",
"X c #5D2F1C",
"o c #256912",
"O c #961F16",
"+ c #945826",
"@ c #995C2E",
"# c #5B8A19",
"$ c #8DB024",
"% c #B8815B",
"& c #F7B155",
"* c #F9B564",
"= c #FFC69E",
"- c None",
/* pixels */
"--------------------------------",
"--------------------------------",
"--------------------------------",
"--------------------------------",
"--------------------------------",
"--------------------------------",
"--------------------------------",
"--------------------------------",
"----------X@@@@@==@@@@X---------",
"--------X@@@&&&*==&&@@@X--------",
"-------X@&&----===---&&@@X------",
"------X@&-----$$$$$$---&&@X-----",
"----------###$$OO$$$$-----------",
"----------##$$OO.$$$$#----------",
"----------###....$$$$$----------",
"----------X#...$$$$$$$----------",
"----------XX#.$$$$$$$$----------",
"----------XX%%#$$$$$$$----------",
"----------XX%%X#####XX----------",
"-----------XX%XXXXXXXX----------",
"-----------% XXX+++++X----------",
"----------%%  XXX++++X----------",
"----------%% ++oooXXX-----------",
"----------+++++ooX  ------------",
"-----------++++ XX## -----------",
"------------ooo###oo -----------",
"------------oooo#oo  -----------",
"------------ oooo  -------------",
"------------ XXX ---------------",
"----------- ..XX ---------------",
"----------- .... ---------------",
"-----------     ----------------"
};
