/* XPM */
static char *result[] = {
/* columns rows colors chars-per-pixel */
"32 32 4 1 ",
"  c #E97461",
". c #FF8F8F",
"X c gray99",
"o c None",
/* pixels */
"oooooooooooooooooooooooooooooooo",
"ooooooooooooooo  ooooooooooooooo",
"ooooooooooooooo  ooooooooooooooo",
"ooooooooooooooo..ooooooooooooooo",
"ooooooooooooooo..ooooooooooooooo",
"ooooooooooooooo..ooooooooooooooo",
"oooooooooooooo.XX.oooooooooooooo",
"oooooooooooooo XX oooooooooooooo",
"oooooooooooooo XX oooooooooooooo",
"oooooooooooooo XX oooooooooooooo",
"oooooooooooooo XX oooooooooooooo",
"oooooooooooooo.XX.oooooooooooooo",
"oooooooooooooo.XX.oooooooooooooo",
"oooooooooooooo.XX.oooooooooooooo",
"oooooooooooooo.XX.oooooooooooooo",
"oooooooooooooo.XX.oooooooooooooo",
"ooooooooooooo .XX. ooooooooooooo",
"ooooooooooooo XXXX ooooooooooooo",
"ooooooooooooo.XXXX.ooooooooooooo",
"ooooooooooooo.XXXX.ooooooooooooo",
"oooooooooooo .XXXX. oooooooooooo",
"oooooooooooo .XXXX. oooooooooooo",
"oooooooooooo .XXXX. oooooooooooo",
"ooooooooooo .XXXXXX. ooooooooooo",
"ooooooooooo .XXXXXX. ooooooooooo",
"ooooooooooo .XXXXXX. ooooooooooo",
"ooooooooooo .XXXXXX. ooooooooooo",
"ooooooooooo  XXXXXX  ooooooooooo",
"oooooooooooo XX..XX oooooooooooo",
"oooooooooooo .X..X. oooooooooooo",
"ooooooooooooo  ..  ooooooooooooo",
"oooooooooooooooooooooooooooooooo"
};
