/* XPM */
static char *result[] = {
/* columns rows colors chars-per-pixel */
"32 32 5 1 ",
"  c #B53772",
". c #E97461",
"X c #FF8F8F",
"o c gray99",
"O c None",
/* pixels */
"OOOOOOOOOOOOOOOOOOOOOOOOOOOOOOOO",
"OOOOOOOOOOOOOOOOOOOOOOOOOOOOOOOO",
"OOOOOOOOOOOOO.OOOO.OOOOOOOOOOOOO",
"OOOOOOOOOOOOO.OOOO.OOOOOOOOOOOOO",
"OOOOOOOOOO O.XOXXOX.O OOOOOOOOOO",
"OOOOOOOOOO.O.XXXXXX.O.OOOOOOOOOO",
"OOOOOOOOO . .XooooX. . OOOOOOOOO",
"OOOOOOOO  ...XoooXX...  OOOOOOOO",
"OOOOOOOO  ..XooXXooX..  OOOOOOOO",
"OOOOOOOOO  .XXXXoooX.  OOOOOOOOO",
"OOOOOOOOOO  XXXoooXX  OOOOOOOOOO",
"OOOOOOOOO.O XXXXXXXX O.OOOOOOOOO",
"OOOOOOOO .. .XXXXXX. .. OOOOOOOO",
"OOOOOO.O .X.XXooooXX.X. O.OOOOOO",
"OOOOOO O  XXXooooooXXX  O OOOOOO",
"OOOOOO  ...XoooooXooX...  OOOOOO",
"OOOOOOO  .XXooooXoooXX.  OOOOOOO",
"OOOOOOOO ....oXXooo.... OOOOOOOO",
"OOOOOOOOO ....XXXX.... OOOOOOOOO",
"OOOOOOOOOO   .XXXX.   OOOOOOOOOO",
"OOOOOOOOOOOO XXXXXX OOOOOOOOOOOO",
"OOOOOOOOOO  .XooooX.  OOOOOOOOOO",
"OOOOOOOOOO...XooooX...OOOOOOOOOO",
"OOOOOOOO. .XXooooooXX. .OOOOOOOO",
"OOOOOOO . .XXoXooooXX. . OOOOOOO",
"OOOOOO .. .XooXXooooX. .. OOOOOO",
"OOOOOO ..X.XXooXXooXX.X.. OOOOOO",
"OOOOOOO .XX.XXooXXXX.XX. OOOOOOO",
"OOOOOOO  .XXXXXXXXXXXX.  OOOOOOO",
"OOOOOOOO .  ..XXXX..  . OOOOOOOO",
"OOOOOOOOO    ..XX..    OOOOOOOOO",
"OOOOOOOOOOOOO      OOOOOOOOOOOOO"
};
