/* XPM */
static char *result[] = {
/* columns rows colors chars-per-pixel */
"32 32 6 1 ",
"  c #B53772",
". c #E97461",
"X c #93278F",
"o c #FF8F8F",
"O c gray99",
"+ c None",
/* pixels */
"++++++++++++++++++++++++++++++++",
"++++++++++++++++++++++++++++++++",
"++++++++++++++++++++++++++++++++",
"+++++++++++++++.......++++++++++",
"+++++++++++++++ +   ...+++++++++",
"+++++++++++++++++++ +.. ++++++++",
"+++++++++++++++++++++.. ++++++++",
"++++++++++++++   +++..  ++++++++",
"+++++++++++   ...++..o +++++++++",
"+++++++++++ ..o.....o.X+++++++++",
"++++++++++ ..ooooooo. X+++++++++",
"+++++++++ ..oooooo  XX++++++++++",
"+++++++++ ..ooooo..+++++++++++++",
"+++++++++X.ooooO..oo++++++++++++",
"+++++++++X.o.oOO......++++++++++",
"+++++++++X.......oooo..+++++++++",
"++++++++++ X .....oooo.+++++++++",
"++++++++++++X     ..oo. ++++++++",
"++++++++++++++XXXX ..o. ++++++++",
"++++++++++++++++++X .o. ++++++++",
"++++++++++  ...+++X..o. ++++++++",
"++++++++++...o+++  .o.. ++++++++",
"++++++++  .oo+++  ..oo +++++++++",
"++++++++ .ooooo  .ooo  +++++++++",
"++++++++ .ooooooooo.  ++++++++++",
"+++++++ .ooooOOoo.++++++++++++++",
"+++++++X oooOOOoo.. ++++++++++++",
"+++++++  .oooooo..  X+++++++++++",
"++++++++ .oo.....   X+++++++++++",
"++++++++X        XXX++++++++++++",
"+++++++++XXX  XXXX++++++++++++++",
"++++++++++++++++++++++++++++++++"
};
