/* XPM */
static char *result[] = {
/* columns rows colors chars-per-pixel */
"32 32 3 1 ",
"  c #B53772",
". c #93278F",
"X c None",
/* pixels */
"XXXXXXXXXXXXXXXXXXXXXXXXXXXXXXXX",
"XXXXXXXXXXX.  XXXXXXXXXXXXXXXXXX",
"XXXXXXXXXXX...XXXXXXXXXXXXXXXXXX",
"XXXXXXXXXXXX..XXXXXXXXXXXXXXXXXX",
"XXXXXXXXXXXXXXXXXXXXXXXXXXXXXXXX",
"XXXXXXXXX.. .XXXXXXXXXXXXXXXXXXX",
"XXXXXXXX.   ..XXXXXXXXXXXXXXXXXX",
"XXXXXXXX.   ..XX..XXXXXXXXXXXXXX",
"XXXXXXXXX...XXXX..XXXXXXXXXXXXXX",
"XXXXX  XXXXXXXXXXXX.XXXXXXXXXXXX",
"XXXX  ..XXXXXXXXXXXXXXXXXXXXXXXX",
"XXXX   .XXXXXXXXXXXXX   XXXXXXXX",
"XXXX  ..XXXXXXXXXXXX..   XXXXXXX",
"XXXXX..XXXXXXXXXXXXX..   XXXXXXX",
"XXXXXXXXXXXXXXXXXXXX.. ..XXXXXXX",
"XXXXXXXXXXXXXXXXXXXXX....XXXXXXX",
"XXXXXXXXXXXXXXXXXXXXXXXXXXXXXXXX",
"XXXXXX.XXXXXXXXXXXXXXXXXXXXXXXXX",
"XXXXX...X..XXXXXXXXX..XXXXXXXXXX",
"XXXX  ..X..XXXXXXXXX..XXXXXXXXXX",
"XXX    .XXXXXXXXXXXXXXXXXXXXXXXX",
"XXX   ..XXXXXXXXXXXXXXXXXXXXXXXX",
"XXX   .XXXXXXXXXXXXXXX..  XXXXXX",
"XXX   .XXXXXXXXXXXXXXX.   XXXXXX",
"XXX.. .XXXXXXXXXXXXXXXX.  XXXXXX",
"XXXX..XXXXXXXXXXXXXXXXX...XXXXXX",
"XXXXXXXXXXXXXXXXXXXXXXXXXXXXXXXX",
"XXXXXXXXXXXXXXXXXXXXXXXXXXXXXXXX",
"XXXXXXXXX.  XXXXXX.  .XXXXXXXXXX",
"XXXXXXXX.   .XXXX.   .XXXXXXXXXX",
"XXXXXXXX.   .X.XX.   .XXXXXXXXXX",
"XXXXXXXX....XXXXXX....XXXXXXXXXX"
};
