/* XPM */
static char *_cbe1edcc8524fbac390945a3341357fOY8LTwSZtq0WSr17[] = {
/* columns rows colors chars-per-pixel */
"32 32 162 2 ",
"   c None",
".  c #4E1E09",
"X  c #4D1A10",
"o  c #4E141D",
"O  c #52141D",
"+  c #571D1A",
"@  c #54230B",
"#  c #58260D",
"$  c #5F2A0F",
"%  c #612C0F",
"&  c #642D13",
"*  c #6D2B1A",
"=  c #673211",
"-  c #6A3412",
";  c #6F3913",
":  c #733915",
">  c #7A3E17",
",  c #71341B",
"<  c #7B3B1E",
"1  c #4E0F24",
"2  c #4F0B2E",
"3  c #550D2E",
"4  c #5A0E2F",
"5  c #5E112E",
"6  c #5D1A2B",
"7  c #4E0931",
"8  c #520B31",
"9  c #580E34",
"0  c #550C39",
"q  c #580E3E",
"w  c #591530",
"e  c #5F113D",
"r  c #64132D",
"t  c #6C162C",
"y  c #621B2C",
"u  c #6E192A",
"i  c #70172B",
"p  c #73192B",
"a  c #7B1D2A",
"s  c #63123D",
"d  c #6D143D",
"f  c #672327",
"g  c #682626",
"h  c #6C2B24",
"j  c #682128",
"k  c #722527",
"l  c #7C2626",
"z  c #742B24",
"x  c #733322",
"c  c #752B31",
"v  c #7A3031",
"b  c #794217",
"n  c #7E4119",
"m  c #5D1044",
"M  c #691445",
"N  c #6D1846",
"B  c #62134C",
"V  c #731A44",
"C  c #7B1E4B",
"Z  c #661552",
"A  c #691756",
"S  c #6D1853",
"D  c #6E195D",
"F  c #771D57",
"G  c #731B5B",
"H  c #7A1D5A",
"J  c #7F204A",
"K  c #7F2057",
"L  c #811F29",
"P  c #852129",
"I  c #8A2328",
"U  c #8D282B",
"Y  c #942A29",
"T  c #9A2D29",
"R  c #89362D",
"E  c #9D3029",
"W  c #833B31",
"Q  c #A43429",
"!  c #A93729",
"~  c #AD3929",
"^  c #83461A",
"/  c #864A1B",
"(  c #8A4C1C",
")  c #8D511D",
"_  c #94551F",
"`  c #965A1F",
"'  c #814120",
"]  c #8D482A",
"[  c #99482F",
"{  c #915222",
"}  c #965820",
"|  c #9A5B21",
" . c #975229",
".. c #9B5728",
"X. c #9F5E2A",
"o. c #924A33",
"O. c #A15833",
"+. c #AA5B31",
"@. c #9F6022",
"#. c #A46524",
"$. c #AA6627",
"%. c #A76825",
"&. c #AC6C26",
"*. c #B16D29",
"=. c #B07027",
"-. c #B07027",
";. c #B07028",
":. c #B27128",
">. c #B27228",
",. c #B37228",
"<. c #B4712A",
"1. c #B7762A",
"2. c #B6752A",
"3. c #B7702D",
"4. c #B27228",
"5. c #B9762B",
"6. c #B9772B",
"7. c #BA772B",
"8. c #BB762C",
"9. c #BF772F",
"0. c #BC782C",
"q. c #BF7A2D",
"w. c #BF7A2E",
"e. c #BD7A2D",
"r. c #BF7830",
"t. c #C07B2D",
"y. c #C17C2E",
"u. c #C37D2F",
"i. c #C37E2F",
"p. c #C47E2F",
"a. c #C57D30",
"s. c #C57F30",
"d. c #C67F30",
"f. c #C77F30",
"g. c #C77E32",
"h. c #C67D32",
"j. c #91224E",
"k. c #832255",
"l. c #852355",
"z. c #832254",
"x. c #892553",
"c. c #85205A",
"v. c #8D2358",
"b. c #932656",
"n. c #9C2657",
"m. c #9C2854",
"M. c #962B5D",
"N. c #9C2E5B",
"B. c #AD2B54",
"V. c #A82D5B",
"C. c #AB305E",
"Z. c #C4416D",
"A. c #C24070",
"S. c #C68030",
"D. c #CB8332",
"F. c #C98231",
"G. c #CC8332",
"H. c #CD8433",
"J. c #CE8433",
"K. c #CD8334",
"L. c #CF8534",
"P. c #D08634",
/* pixels */
"                                                                ",
">.>.>.>.>.>.>.>.>.>.>.>.>.>.>.-.>.>.>.>.>.>.>.>.>.>.>.>.>.>.>.>.",
">.>.` &.q.P.S.1.>.>.,.-.-.` &.u.P.u.6.>.>.>.>.&.} >.S.L.q.6.>.>.",
"6.2./ | D.6.-.S.f.>.>.q.,.b %.F.6.>.F.p.>.>.u.&.- >.u.6.>.D.u.>.",
"L.*.> & -.%.6.6.g.*.&.G.%.: = -.%.6.6.p.&.-.K.#.- ; &.%.6.6.f.%.",
"S.( ( r.q.) #.P._ / %.y./ _ p.0.( %.L._ ^ &.8.^ } S.>.( *.L.( ^ ",
"X.' *.P.O.] ( r.x g w X.' 3.P.o. .{ a.x y y X.' a.K.W ..{ g.< y ",
"U U R o.U Y k c U T a U I [ W t L l c U T a U U +.W Y Y u v U T ",
"~ ! u T ~ ~ P p ~ ~ I ~ Q i p ~ ! I a ~ ! I ~ E t Q ~ Q a a ~ ! ",
"T I p Y Y a p I T I p T I p ! ~ T I Y Y I a T P p T I a p Y T I ",
"t p i p i T ~ I p u p p ! Y I I I L p I I P p p i i p Q ! a i p ",
"I T Y a p Q ~ ~ I U a ~ ~ ~ L L L i r I P P P T I a a ! ~ ~ a 5 ",
"~ ~ Q P p I I I ! ~ ! ! ! I i t t 7 7 t i a ~ ~ T P a I I I I t ",
"T E I a t a p Y ~ ~ Q l p r 7 7 3 7 7 7 7 t T T I a p a a I a r ",
"I P 9 Y Q U t P ~ ~ Q r 8 8 7 7 7 7 B A A 4 i L i Q Q P t p r T ",
"T 8 a ~ ~ ~ P a I Q t 4 7 7 7 B 0 B l.l.H q 4 r T ~ ~ ! t 8 ~ ~ ",
"Y 7 I I I I I p u r t 7 7 7 B D 0 H z.x.x.z.q 8 a I Y I L p ~ Y ",
"r 8 t a P L L a t 7 7 0 7 B K D 0 l.M.x.x.N.H 7 r L L L L p L a ",
"8 7 4 t 4 p L p t 7 7 0 A D M G Z m.V l.x.V H 7 i Q U i r 4 p a ",
"I I r 8 I I Y r 7 7 7 B D D D K F V.z.l.x.x.H 0 8 T T I t 9 I L ",
"L I r t I T Q r 7 7 Z D D D K c.H n.z.x.x.x.x.l.e p Y L t 8 L L ",
"t t r r i U i 4 Z Z C K G x.B.c.H n.Z.Z.m.B.V.j.q p p p r 8 t i ",
"r 3 3 7 4 p L r 2 7 B A D J d c.H n.C z.l.l.z.B 4 L L 4 7 2 8 4 ",
"L 4 7 a I L I I 8 7 Z G l.x.l.c.G n.k.l.l.l.l.Z p I I 4 L L 2 7 ",
"a t 4 I I a a I r 7 8 b.x.x.n.c.M n.b.x.l.m.z.A p L L 4 L L t 8 ",
"i t 3 L L t t i t 8 A B z.x.e K 0 k.s x.l.m D 7 t L p 8 i i i 8 ",
"4 3 j 4 4 r t k 4 1 7 m F H H G 0 F H H H m m 3 t 4 4 r 3 z 4 7 ",
"8 x p 3 3 3 r , x o . 3 3 8 3 3 7 x 2 7 3 y 6 < i 2 2 3 5 ' g 2 ",
"% > < O . % o , ' g @ ^ @ : } > b = = & . > + ^ * o . % o ^ < & ",
"( @ ^ ^ : @ . @ ^ / %.` ^ _ -.^ ( $ ^ ^ ^ &.- $ ^ ^ = @ . @ ^ ^ ",
"%.} &./ ( } / %./ %.>.#._ #.( ^ _ ( &./ &.,.@.` @.^ _ _ ( &.( *.",
">.>.-.-.&.-.&.,.&.>.>.>.>.>.&.&.>.&.,.&.,.,.,.-.-.&.&.,.-.,.&.:."
};
