/* XPM */
static char *a2e2f5d1ae5d4c06f606f069f0a48d15H98CvR7j6DW8o81Y[] = {
/* columns rows colors chars-per-pixel */
"32 32 139 2 ",
"   c None",
".  c #4D1D0A",
"X  c #4D1716",
"o  c #4D1814",
"O  c #4E131C",
"+  c #52141D",
"@  c #551B1C",
"#  c #54220B",
"$  c #58260D",
"%  c #5F2A0F",
"&  c #602B0F",
"*  c #642D12",
"=  c #6D2B1A",
"-  c #673111",
";  c #6A3412",
":  c #6F3913",
">  c #743A15",
",  c #7A3E17",
"<  c #71341B",
"1  c #7B3B1E",
"2  c #4E0F26",
"3  c #4E0C2B",
"4  c #540D2E",
"5  c #5A0E2F",
"6  c #5E112E",
"7  c #4E0931",
"8  c #520B30",
"9  c #580D30",
"0  c #591530",
"q  c #64132D",
"w  c #6C162C",
"e  c #621B2C",
"r  c #6E192A",
"t  c #70172B",
"y  c #73192B",
"u  c #7B1D2A",
"i  c #672327",
"p  c #682626",
"a  c #6C2B24",
"s  c #682128",
"d  c #722527",
"f  c #7C2626",
"g  c #742B24",
"h  c #743421",
"j  c #752B31",
"k  c #7A3031",
"l  c #784116",
"z  c #7E4119",
"x  c #811F29",
"c  c #852129",
"v  c #8A2328",
"b  c #8D282B",
"n  c #942A29",
"m  c #9A2D29",
"M  c #89362D",
"N  c #9D3029",
"B  c #833B31",
"V  c #A43429",
"C  c #A93729",
"Z  c #AD3929",
"A  c #83461A",
"S  c #864A1B",
"D  c #8B4C1C",
"F  c #8D511D",
"G  c #94551F",
"H  c #965A1F",
"J  c #814120",
"K  c #8D482A",
"L  c #99482F",
"P  c #915222",
"I  c #965820",
"U  c #9A5B21",
"Y  c #975229",
"T  c #9B5728",
"R  c #9F5E2A",
"E  c #924A33",
"W  c #A15833",
"Q  c #AA5B31",
"!  c #9F6022",
"~  c #A46424",
"^  c #AA6627",
"/  c #A76825",
"(  c #AE6D27",
")  c #AD6E27",
"_  c #AF6F27",
"`  c #AE6E27",
"'  c #AD6C27",
"]  c #AC6C26",
"[  c #A66528",
"{  c #B06A2B",
"}  c #B16E28",
"|  c #B46E2A",
" . c #B07027",
".. c #B07027",
"X. c #B07028",
"o. c #B27128",
"O. c #B27228",
"+. c #B37228",
"@. c #B4712A",
"#. c #B6752A",
"$. c #B7762A",
"%. c #B7702D",
"&. c #B27228",
"*. c #B9762B",
"=. c #B9772B",
"-. c #BA772B",
";. c #BB762C",
":. c #BF772F",
">. c #BC782C",
",. c #BD7A2D",
"<. c #BE7A2D",
"1. c #BF7A2D",
"2. c #BF7B2D",
"3. c #BF7A2E",
"4. c #BF7830",
"5. c #C07B2D",
"6. c #C17C2E",
"7. c #C27D2E",
"8. c #C37D2F",
"9. c #C37E2F",
"0. c #C47E2F",
"q. c #C57D30",
"w. c #C57F30",
"e. c #C67F30",
"r. c #C77F30",
"t. c #C67D32",
"y. c #C77E32",
"u. c #C68030",
"i. c #C88131",
"p. c #CA8231",
"a. c #CA8232",
"s. c #CB8332",
"d. c #CC8332",
"f. c #CC8433",
"g. c #CD8433",
"h. c #CE8433",
"j. c #CD8334",
"k. c #CF8534",
"l. c #D08634",
/* pixels */
"                                                                ",
"O.O.O.O.O.O.O.O.O.O.O.O.O.O.O.O.O.O.O.O.O.O.O.O.O.O.O.O.O.O.O.O.",
"O.O.H ) 2.l.u.#.O.O.O.O.O.I _ 7.l.5.=.O.O.O.O.) U O.u.k.2.=.O.O.",
"=.#.S U s.=...u.r.O.O.2.O.l / u.*.O.a.7.O.O.4.( ; X.u.#.O.s.7.O.",
"k.} , * _ / *.*.r.} ] d./ > - ( / -.=.a._ _ j.~ - : _ / #.=.r./ ",
"u.D D 5.2.F ~ l.G D / 5.S G q.2.D ^ l.F A ] -.S I r.O.D | k.D A ",
"R J { l.W K D 4.h p 0 R h ;.l.E Y P q.h e e R J q.j.B T P y.1 e ",
"b b M E b n d j b m u b b L B w x f j b m u b v Q B b m r k b m ",
"Z C t N Z Z c y Z C v Z V t u Z Z v u Z C b C V w V Z V u u Z V ",
"m v t n n u y v m b y m v y V Z N x m m v u m x y m b u y n m v ",
"t y t t t m Z v y y t y C n v v x x u x v x t y t t y V C u t t ",
"b m n u y V Z Z v b u Z Z C x x x u q x v x v m v u u C Z Z u q ",
"Z Z V c y v v v C Z C C C v t w w 8 7 t t u C Z m x u b v v v w ",
"m m v u w u y n Z Z V f y q 8 7 7 7 7 7 7 t m m x u t u u v u q ",
"v c 9 n V b w c C Z V q 8 8 7 7 7 7 7 7 7 4 y x u V V c w t q m ",
"m 8 u Z Z Z c u v V y 4 7 7 7 7 7 7 7 7 7 7 5 q m Z Z C w 4 Z Z ",
"n 7 v b v b v y r q w 7 7 7 7 7 7 7 7 7 7 7 7 7 u v n n x t Z n ",
"w 7 w u x x x u w 7 7 7 7 7 7 7 7 7 7 7 7 7 7 7 q x x x x y x u ",
"7 7 4 t 5 u x y w 8 7 7 7 7 7 7 7 7 7 7 7 7 7 7 t V n t q 9 y u ",
"v x q 4 v x n q 7 7 7 7 7 7 7 7 7 7 7 7 7 7 7 7 7 N m x w 9 v x ",
"x x w q v m V q 7 7 7 7 7 7 7 7 7 7 7 7 7 7 7 7 7 y v x t 8 u x ",
"t t q q t n t 9 7 7 7 7 7 7 7 7 7 7 7 7 7 7 7 7 7 y u y q 8 w y ",
"q 9 4 7 5 y x q 7 7 7 7 7 7 O X X 7 O X 3 7 7 7 5 x x q 7 8 8 5 ",
"x 5 7 x x v v c 8 7 7 3 3 3 3 7 3 3 2 7 7 7 7 7 u v x 5 x x 7 7 ",
"x q 6 v v u u v w 7 7 3 . . O 7 2 . . O O X 2 7 t x x 5 x x w 8 ",
"t t 4 x u w t t w 7 7 3 3 3 3 . . 3 2 2 o X 7 7 q x u 8 w t w 8 ",
"5 8 s 6 5 w w d 6 7 7 X . ; ; % , * . O 3 7 7 4 w 5 5 q 5 g 9 7 ",
"8 h y 4 3 3 q h h 7 3 3 2 @ $ # > > . 3 7 3 4 1 t 8 2 8 5 J p 3 ",
"* 1 1 + . % O < A i @ A # > H , - - - & . & @ A = O . & O A 1 & ",
"D # A z > # . # A A / I A G } A A & A A A ] : % A A - # . # A A ",
"/ H / D D H D / D ~ ../ G ~ D A G D _ D ] +.~ H ! A G G D ' D } ",
"......_ ] } _ O._ O.O.+.....] ] } _ ..] ..+.+.....' ' ..} +.} +."
};
