/* XPM */
static char *ddaa0f837d7c48f7d128f2e133108e00Qzm2I22qzp1tSXOU[] = {
/* columns rows colors chars-per-pixel */
"32 32 47 1 ",
"  c #84461A",
". c #87491B",
"X c #884A1B",
"o c #8A4C1C",
"O c #8C4D1C",
"+ c #8D4E1D",
"@ c #8E501D",
"# c #91521E",
"$ c #95561F",
"% c #95571F",
"& c #975820",
"* c #985920",
"= c #9B5C21",
"- c #9D5E22",
"; c #9F6022",
": c #A16223",
"> c #A26323",
", c #A46424",
"< c #A56624",
"1 c #A86825",
"2 c #AA6A26",
"3 c #AA6B26",
"4 c #AC6C26",
"5 c #AC6D26",
"6 c #B07027",
"7 c #B17128",
"8 c #B27228",
"9 c #B37328",
"0 c #B47329",
"q c #B6752A",
"w c #BA772B",
"e c #BB782C",
"r c #BD7A2D",
"t c #BF7B2D",
"y c #C07B2E",
"u c #C17C2E",
"i c #C47E2F",
"p c #C57F30",
"a c #C67F30",
"s c #C78030",
"d c #C98131",
"f c #CA8232",
"g c #CC8332",
"h c #CE8433",
"j c #CE8533",
"k c #CF8634",
"l c #D08634",
/* pixels */
"888888888888888888tks8858q696888",
"888888888988888888tkfurq66q69988",
"888888886969888888tkkkaqq6698888",
"888888889999888888wushf960q68888",
"8888888896q666608888rhsq88888888",
"888888886q6qruw68888qtr988888888",
"88888888666wfhr08888988888888888",
"888882-:666qfhayw888885->5888888",
"88888>X#588qskkkp88888<X#5699888",
"88888:Xo*:50rufkr88888>Xo&;28888",
"88888:.  O288qslr08888>o  O<8888",
"88888:.  O2888eue788885-&.O28888",
"88888:X  @<88888070688881oO18888",
"888882-$X@288888787088885;;58888",
"8888888<o@288888066q888888888888",
"88888885:-588888662=>88888888888",
"8888868880888888q6:X%68888888888",
"888880ay00rrq8881*O %68888888888",
"88888wlaqwfgw886-   %68888888888",
"8800aala0wfksrw6*   $68888888888",
"888rlllaqwfllhr8-   &688q6888888",
"880rlllaqwflkfr8- O;<688qurq8888",
"868rllla0wflkkp8* %68886wffw8888",
"780rgfar08rafke62*<988quuhfw8888",
"076ylaq6888qskr6888888wkllfw8888",
"786wye99888qtee6888889wgllfw8888",
"060qq6698888696q888888tgllfw8888",
"6076606988889696888888whkurq8888",
"8888696q88888888888888rhfw888888",
"8888q69688888888888888qrwq888888",
"8888886988888888888888896q888888",
"88888889888888888888888966888888"
};
