/* XPM */
static char *_07388a0665b491d8c37d74cb8a8a288xVnZA6CupHnySTVr[] = {
/* columns rows colors chars-per-pixel */
"32 32 164 2 ",
"   c None",
".  c #462414",
"X  c #4B2816",
"o  c #46201C",
"O  c #563019",
"+  c #5B341B",
"@  c #5F381D",
"#  c #643B1E",
"$  c #683F1F",
"%  c #461B25",
"&  c #45162D",
"*  c #47192B",
"=  c #4A192E",
"-  c #521F2F",
";  c #451234",
":  c #4A1633",
">  c #4E1932",
",  c #541C32",
"<  c #5A1E33",
"1  c #572B23",
"2  c #53212E",
"3  c #5D242E",
"4  c #5B292C",
"5  c #5D3222",
"6  c #5B2132",
"7  c #64272F",
"8  c #652B2D",
"9  c #6A2A2F",
"0  c #643427",
"q  c #633028",
"w  c #73392A",
"e  c #783A2A",
"r  c #632432",
"t  c #6B2633",
"y  c #662930",
"u  c #6D2931",
"i  c #632539",
"p  c #68273A",
"a  c #672839",
"s  c #6B2A39",
"d  c #732C31",
"f  c #7B2E31",
"g  c #732F3A",
"h  c #763134",
"j  c #7C3234",
"k  c #773238",
"l  c #7C343A",
"z  c #67401F",
"x  c #68401F",
"c  c #6D4421",
"v  c #724622",
"b  c #754922",
"n  c #7C4E24",
"m  c #7B462C",
"M  c #7D5126",
"N  c #7E5228",
"B  c #823536",
"V  c #803637",
"C  c #813737",
"Z  c #833737",
"A  c #813435",
"S  c #853736",
"D  c #843737",
"F  c #873636",
"G  c #873737",
"H  c #833232",
"J  c #883534",
"K  c #893634",
"L  c #883635",
"P  c #883636",
"I  c #883736",
"U  c #8B3736",
"Y  c #893534",
"T  c #8B3836",
"R  c #8A3836",
"E  c #8C3836",
"W  c #8C3937",
"Q  c #8D3937",
"!  c #8C3936",
"~  c #8E3B37",
"^  c #83363A",
"/  c #863739",
"(  c #883738",
")  c #803838",
"_  c #823939",
"`  c #863838",
"'  c #853A39",
"]  c #843A3A",
"[  c #863C3B",
"{  c #81383C",
"}  c #863A3B",
"|  c #883938",
" . c #893B39",
".. c #883B3A",
"X. c #8A3A3A",
"o. c #8F3B38",
"O. c #8D3D3B",
"+. c #8F3D3A",
"@. c #8D3E3B",
"#. c #883C3C",
"$. c #8B3E3F",
"%. c #903C39",
"&. c #913D3A",
"*. c #923E3A",
"=. c #933F3B",
"-. c #943F3B",
";. c #85452C",
":. c #88472C",
">. c #825427",
",. c #835827",
"<. c #855629",
"1. c #885729",
"2. c #865828",
"3. c #8B5C2A",
"4. c #93502E",
"5. c #8F403D",
"6. c #94403B",
"7. c #92403D",
"8. c #91423E",
"9. c #92423E",
"0. c #95403C",
"q. c #95413C",
"w. c #96413C",
"e. c #96423D",
"r. c #97433D",
"t. c #95433E",
"y. c #96433E",
"u. c #94443F",
"i. c #93423E",
"p. c #98433E",
"a. c #99443E",
"s. c #99443E",
"d. c #9A453F",
"f. c #9A453F",
"g. c #9A5A31",
"h. c #8F612B",
"j. c #93632D",
"k. c #98662F",
"l. c #99692F",
"z. c #9D6B31",
"x. c #9F7030",
"c. c #A37232",
"v. c #AB7736",
"b. c #B47E3A",
"n. c #B87D3B",
"m. c #8B3D40",
"M. c #8D3E40",
"N. c #8E3F40",
"B. c #994741",
"V. c #9A4640",
"C. c #9B4640",
"Z. c #9A4742",
"A. c #9C4640",
"S. c #9D4740",
"D. c #9C4742",
"F. c #9C4740",
"G. c #9E4941",
"H. c #9D4942",
"J. c #9F4942",
"K. c #9F4A42",
"L. c #A04A42",
"P. c #A14B43",
"I. c #A14B43",
"U. c #B7813B",
/* pixels */
"                        q.I.R ~ ~ j     9                       ",
"                    K.9.H.~ s.P.I.I.D.R &.9                     ",
"              g { Z C d J s.q.f.I.s.f.I.&.s.~ t >               ",
"            , d u &.e.| e.R -.I.D.~ q.J q.P.s.f u : ;           ",
"          t 9 f 6 s.R e./ h P.J -.J &.y ] C.o.t r ; ; ;         ",
"        r t H e.| d 9 &.l d j C H.y 8.J 9 l d > d 3 : ;         ",
"      : : l R t > k s f ' 5.C.y y l r.j j , r 6 d d r : ;       ",
"    ; 6 k s.r.C > B.r i u h -.#.< , y j _ h 3 r X.r ^ > ; ;     ",
"    < 6 j Z e.f 6 u r.B.l #.p t r r p I.-.P.%.H Y < ; : : ;     ",
"    f f t t 6 k i f s.R l a k D.p.H p.%.I.-.E -.%.r : ; < ; ;   ",
"  : < , C.e.o.p.I.r d d < B.e.e.-.-.7 B C f t u d 9 : ; ; ; ;   ",
"  6 u a l / C.h t > , t F d i , < , u f 3 9 < Y d i : ; 2 ,     ",
"- d r < 6 , d l < B.-.o.H.k r f F f s 8 d H , < 6 : : 3 : : ;   ",
"  , m.o.R t J s.H.i ^ D.t p V.d J p m.d H u r ; ; > , ; : , ; ; ",
"  < V.s.| r N.C.e.H a , : , , : m.< < : r r : - r u 9 3 ; , ;   ",
"  : r r < f j J 8.y t : f r f i : : , u , ; ; u j H u , : ; ;   ",
"    ; ; f u , 7 r f < > | d d i : , d f t : ; , , g , , ; ;     ",
"      , r : 7 H : : t u : , , , H f H i ; , : - : : : : ;       ",
"      ; > - r < 7 u H d < , , a f 7 f < 3 , 3 > - : - ; ;       ",
"              d f f t u > f 6 , : : : : : : : ; : ; ;           ",
"              : < : - > y , ; 2 : < : ; ; ; ; ; ;               ",
"            b   ; - > > ; ; ; ; ; ; : ; & % *                   ",
"          b n j.b 2.b 3 > > 2 ; ; ; o + + . X z v 2.  2.        ",
"      n 3.j.1.>.# b b O + * - 4 2 ; % . v + j.,.z c M <.        ",
"      <.z.b 0 h.z c M ,.. 1 e q q 4 : . O n 3.3.v 3.>.>.        ",
"  b b $ n <.v.h.n.2.c ,.5 w ;.8 6 q q % @ b.2.@ + M l.j.        ",
"      3.n ,.M l.z.,.c 0 g.4.;.w q 4 4 > + b 3.v z + M           ",
"    >.c.U.M x.0 U.z M z.n.:.e 2 4 1 % + O h.b $ v b 3.b         ",
"      v.M 2.3.,.# 2.c.j.c m 0 5 # @ c b x c + >.3.3.n           ",
"        b j.v v + . b v v.z.1.z.b h.M M + l.<.x.                ",
"                    b <.k.>.b 1.M M   x.,.x.c.                  ",
"                      U.c.j.  h.j.                              "
};
