/* XPM */
static char *result[] = {
/* columns rows colors chars-per-pixel */
"32 35 39 1 ",
"  c #3C1E2A",
". c #3D1E2A",
"X c #3C1E2B",
"o c #3D1E2B",
"O c #3D1F2B",
"+ c #3E1E2A",
"@ c #3E1F2B",
"# c #3E202B",
"$ c #78390A",
"% c #79390A",
"& c #78390B",
"* c #7A3A0A",
"= c #451234",
"- c #461234",
"; c #461334",
": c #522D4A",
"> c #522D4B",
", c #532E4A",
"< c #622547",
"1 c #632646",
"2 c #632647",
"3 c #BD0001",
"4 c #E63101",
"5 c #E93000",
"6 c #905716",
"7 c #905717",
"8 c #925716",
"9 c #915816",
"0 c #925816",
"q c #925916",
"w c #863251",
"e c #873251",
"r c #BC8220",
"t c #BD8320",
"y c #BD8321",
"u c #BE8420",
"i c #BF8420",
"p c #FEA839",
"a c None",
/* pixels */
"aaaaaaaaaaaaaaaaaaaaaaaaaaaaaaaa",
"aaaaaaaaaaaaaaaaaaaaaaaaaaaaaaaa",
"aaaaaaaaaaaaaaaaaaaaaaaaaaaaaaaa",
"aaaaaaaaaaaaaaaaaaaaaaaaaaaaaaaa",
"aaaaaaaaaaaaaaaaaaaaaaaaaaaaaaaa",
"aaaaaaaaaaawwwaeeewaaaaaaaaaaaaa",
"aaaaaaaaaaa==-owew=aaaaaaaaaaaaa",
"aaaaaaaaaa===$%Xw===aaaaaaaaaaaa",
"aaaaaaaaaaa<2@*@;=aaaaaaaaaaaaaa",
"aaaaaaaaaaa@yyyyt@aaaa=aaaaaaaaa",
"aaaaaaaaaO@y>>>>7t@aa<<<<aaaaaaa",
"aaaaaaaaX9i>>>>>>7uoO<<eeaaaaaaa",
"aaaaaaaaX6p#>X>>>,t%6wwaaaaaaaaa",
"aaaaaaaa X9p##@@@t99X==aaaaaaaaa",
"aaaaaaaaaX%9ppttt99%X<aaaaaaaaaa",
"aaaaaaaaaX%99999999$<<<aaaaaaaaa",
"aaaaaaaaao6089%99%9X<<eaaaaaaaaa",
"aaaaaaaaa%+539%%%%9Xaeeaaaaaaaaa",
"aaaaaaaaa%43X9&&&%9Xaaeaaaaaaaaa",
"aaaaaaaaa&ooX*##O&%.XXaaaaaaaaaa",
"aaaaaaaaa#11#uuu6X%%>Xaaaaaaaaaa",
"aaaaaaaaatuuuutrXX&%:Xaaaaaaaaaa",
"aaaaaaaaa9tttt6XXXX%XXaaaaaaaaaa",
"aaaaaaaaaa6666XXO.X&Xaaaaaaaaaaa",
"aaaaaaaaX.X.O.XX9%.XXaaaaaaaaaaa",
"aaaaaaaaX&.&9%OX99%OXaaaaaaaaaaa",
"aaaaaaaaX:&X&66X&99q#Xaaaaaaaaaa",
"aaaaaaaaaX:XXXXXX99tu.aaaaaaaaaa",
"aaaaaaaaaaX::XXXX&99t&aaaaaaaaaa",
"aaaaaaaaaaaXXaaaaX%%&Xaaaaaaaaaa",
"aaaaaaaaaaaaaaaaaX&&XXaaaaaaaaaa",
"aaaaaaaaaaaaaaaaaaXXXaaaaaaaaaaa",
"aaaaaaaaaaaaaaaaaaaaaaaaaaaaaaaa",
"aaaaaaaaaaaaaaaaaaaaaaaaaaaaaaaa",
"aaaaaaaaaaaaaaaaaaaaaaaaaaaaaaaa"
};
