/* XPM */
static char *result[] = {
/* columns rows colors chars-per-pixel */
"32 32 12 1 ",
"  c #361313",
". c #6E1516",
"X c #5D2F1C",
"o c #256912",
"O c #961F16",
"+ c #945826",
"@ c #5B8A19",
"# c #8DB024",
"$ c #B8815B",
"% c #FFC69E",
"& c #F7EFEB",
"* c None",
/* pixels */
"********************************",
"********************************",
"********************************",
"********************************",
"********************************",
"********************************",
"********************************",
"********************************",
"********************O***********",
"**************@@@@*.O***********",
"*************@####@OO***********",
"************@######OO***********",
"***********@@######O.***********",
"**********X@@######.@X**********",
"**********XX@######.XX**********",
"**********XX@######@XX**********",
"**********XX+@####@+XX**********",
"***********X++@##@++X***********",
"************X @##@ +X***********",
"************X&X$$X&+************",
"************X$%%%%$X************",
"***********+Xo$$$$oX+***********",
"**********++oo@@@@oo++**********",
"**********%% XXOOXX %%**********",
"**********$%oo@@@@oo%$**********",
"************XXXXXXXX************",
"************X++  ++X************",
"*********** O..  ..O ***********",
"*********** OO.  .OO ***********",
"************   **   ************",
"********************************",
"********************************"
};
